# xmcd
#
# Track frame offsets:
#	150
#	17675
#	33578
#	47253
#	65645
#	80030
#	93683
#	110245
#	125428
#	141120
#	155710
#	174503
#
# Disc length: 2497 seconds
#
# Revision: 0
# Processed by: cddbd v1.5.1PL2 Copyright (c) Steve Scherf et al.
# Submitted via: dBpowerAMP V4.0
#
DISCID=a809bf0c
DTITLE=Willie Nininger - Middle of the Road
DYEAR=1995
DGENRE=Country
TTITLE0=Track01Restless Must Be My Middle Name
TTITLE1=Mortality
TTITLE2=Can't stop Living This Way
TTITLE3=Only Lisa
TTITLE4=Valerie
TTITLE5=You Really Did It This Name
TTITLE6=Town Called New Orleans
TTITLE7=The Slow Road
TTITLE8=What Happened to You?
TTITLE9=Say Good-bye to that High Lonesome Sound
TTITLE10=La Route De Louis Guillaume
TTITLE11=I Drove All Night
EXTD=
EXTT0=
EXTT1=
EXTT2=
EXTT3=
EXTT4=
EXTT5=
EXTT6=
EXTT7=
EXTT8=
EXTT9=
EXTT10=
EXTT11=
PLAYORDER=
